Coordinates
version=1
nRows=9
nColumns=36
inDegrees=yes

Units are S.I. units (second, meters, Newtons, ...)
If the header above contains a line with 'inDegrees', this indicates whether rotational values are in degrees (yes) or radians (no).

endheader
time	pelvis_tilt	pelvis_list	pelvis_rotation	pelvis_tx	pelvis_ty	pelvis_tz	hip_flexion_r	hip_adduction_r	hip_rotation_r	knee_angle_r	knee_angle_r_beta	ankle_angle_r	subtalar_angle_r	mtp_angle_r	hip_flexion_l	hip_adduction_l	hip_rotation_l	knee_angle_l	knee_angle_l_beta	ankle_angle_l	subtalar_angle_l	mtp_angle_l	lumbar_extension	lumbar_bending	lumbar_rotation	arm_flex_r	arm_add_r	arm_rot_r	elbow_flex_r	pro_sup_r	arm_flex_l	arm_add_l	arm_rot_l	elbow_flex_l	pro_sup_l
      8.25000000	      4.13358510	     -2.41181555	     -1.77433267	      0.26425979	      1.00799001	     -0.04924038	     -2.21134192	      2.14171244	     -5.87659459	      0.75407542	      0.01316110	      5.50334043	      3.92090012	     -7.49999987	     -1.75279091	     -1.87665733	     -9.95916272	      3.43276665	      0.05991308	      6.09976624	      6.30702222	     -7.49999987	     -5.32097591	      3.71590108	      3.64133650	     11.60572051	     -0.87325557	    -26.54334818	     57.80226989	     76.29926155	      2.92780885	     -3.28515825	      0.83405630	     21.10324396	     64.45574336
      8.26666670	      4.32613652	     -2.46996711	     -1.66757807	      0.26706493	      1.00829374	     -0.05079223	     -2.46832395	      2.18620786	     -6.10867044	      0.71286362	      0.01244182	      5.34883454	      4.21599747	     -7.49999987	     -1.99559112	     -1.92436064	     -9.90989586	      3.29570576	      0.05752092	      5.84582917	      6.35844311	     -7.49999987	     -5.65258274	      3.83868336	      3.34786641	     12.02672753	     -0.92141377	    -26.22652244	     56.34648191	     73.69347713	      2.86881872	     -3.19937726	      0.32849222	     21.42405612	     63.47616307
      8.28333330	      4.31782193	     -2.50557026	     -1.73580956	      0.26686397	      1.00231999	     -0.04909174	     -2.48605759	      2.23545051	     -5.92035284	      0.70923820	      0.01237854	      5.21129430	      3.90191992	     -7.49999987	     -2.03506089	     -1.96250392	    -10.25917029	      3.27830323	      0.05721719	      5.97781747	      6.92728592	     -7.49999987	     -5.72473844	      3.89018681	      3.71327510	     12.01086695	     -1.01082738	    -26.33141584	     55.45012809	     74.44600110	      3.13711492	     -3.09521973	     -0.07291476	     21.28707815	     63.66392712
      8.30000000	      4.42522006	     -2.55973083	     -1.79358834	      0.26579779	      1.00048752	     -0.04865469	     -2.58143404	      2.32543024	     -5.85757622	      0.71651633	      0.01250557	      5.30411428	      3.97638717	     -7.49999987	     -2.17503645	     -2.04481101	    -10.25227354	      3.30781780	      0.05773231	      6.05019229	      6.81651458	     -7.49999987	     -5.95785801	      3.93285040	      4.13164616	     12.01197347	     -0.98951351	    -26.97554264	     54.46094998	     76.15194694	      3.43221473	     -3.07058413	     -0.05754362	     21.27668385	     64.27817003
      8.31666670	      4.42680539	     -2.58773443	     -1.74696051	      0.26484171	      1.00113991	     -0.04823718	     -2.56487389	      2.36679953	     -6.11812603	      0.74167011	      0.01294459	      5.45097381	      4.35285782	     -7.49999987	     -2.12129386	     -2.11184051	    -10.25058842	      3.38119979	      0.05901307	      6.20811535	      7.03418616	     -7.49999987	     -6.03835649	      3.98052336	      4.00476887	     12.18918721	     -1.15313575	    -25.94331033	     53.07449057	     73.92012994	      3.34905936	     -3.05129856	     -0.84948675	     21.62604452	     63.32277085
      8.33333330	      4.49217539	     -2.65600536	     -1.75335291	      0.26622058	      0.99633073	     -0.05025223	     -2.62129151	      2.42871684	     -6.01822156	      0.77789025	      0.01357675	      5.51751977	      4.18762487	     -7.49999987	     -2.16331798	     -2.18424488	    -10.24819888	      3.43231991	      0.05990528	      6.53274358	      7.07680460	     -7.49999987	     -6.21789446	      4.12301360	      4.09944999	     12.35889652	     -1.12227952	    -26.18200846	     52.03188606	     75.33273812	      3.20358072	     -3.03320567	     -1.13583078	     22.05636648	     63.72511172
      8.35000000	      4.51124123	     -2.67978490	     -1.74902848	      0.26850641	      0.99984752	     -0.05074094	     -2.66376913	      2.43290035	     -6.08135958	      0.81765656	      0.01427080	      5.47765415	      4.25354632	     -7.49999987	     -2.19570412	     -2.20507941	    -10.13282162	      3.45818452	      0.06035671	      6.64694913	      6.98746592	     -7.49999987	     -6.32541818	      4.16008028	      4.42587700	     12.17474171	     -1.26352657	    -26.42184227	     51.04853978	     75.61411900	      3.17790351	     -2.94864197	     -1.19951235	     22.16722231	     63.79622624
      8.36666670	      4.57076489	     -2.70417341	     -1.73476655	      0.27024900	      0.99711190	     -0.05106506	     -2.78826551	      2.42175085	     -6.10892823	      0.87577656	      0.01528518	      5.56967463	      4.21990635	     -7.49999987	     -2.30810120	     -2.20209817	    -10.06472013	      3.47838984	      0.06070936	      6.78282889	      6.88221799	     -7.49999987	     -6.30794074	      4.30948137	      4.30889386	     12.27331252	     -1.52473677	    -25.43123597	     49.73421622	     73.22948128	      2.89908959	     -2.86823840	     -1.72137415	     22.37078391	     62.77017088
      8.38333330	      4.54064259	     -2.69324910	     -1.78422037	      0.26996072	      1.00088032	     -0.05049140	     -2.77184219	      2.39061526	     -6.14199474	      0.91012515	      0.01588468	      5.61107133	      4.40676516	     -7.49999987	     -2.34685340	     -2.20629113	    -10.18284214	      3.51206294	      0.06129706	      6.90925916	      7.13554260	     -7.49999987	     -6.25557702	      4.33796581	      4.44569016	     12.27706163	     -1.64001946	    -25.04974498	     48.34512941	     72.07714321	      2.81354944	     -2.81499940	     -1.72437102	     22.31043518	     62.35319125
